<svg width="329" height="270" viewBox="0 0 329 270" fill="none" xmlns="http://www.w3.org/2000/svg">
<g clip-path="url(#clip0_698_3723)">
<path d="M229.78 61.345H228.362V22.4887C228.362 16.5243 225.993 10.8041 221.775 6.58664C217.558 2.36913 211.837 -0.000236703 205.873 -0.00024414H123.551C120.597 -0.000254662 117.673 0.58143 114.944 1.7116C112.216 2.84176 109.737 4.49828 107.648 6.58656C105.56 8.67485 103.904 11.154 102.773 13.8825C101.643 16.611 101.062 19.5354 101.062 22.4886V235.657C101.062 238.611 101.643 241.535 102.773 244.264C103.904 246.992 105.56 249.471 107.648 251.56C109.737 253.648 112.216 255.304 114.944 256.435C117.673 257.565 120.597 258.146 123.55 258.146H205.873C208.826 258.146 211.75 257.565 214.479 256.435C217.207 255.304 219.687 253.648 221.775 251.56C223.863 249.471 225.52 246.992 226.65 244.264C227.78 241.535 228.362 238.611 228.362 235.657V89.0036H229.78V61.345Z" fill="#3F3D56"/>
<path d="M206.611 6.38257H195.865C196.359 7.59411 196.548 8.90859 196.414 10.2102C196.281 11.5118 195.829 12.7607 195.1 13.8467C194.37 14.9327 193.384 15.8225 192.229 16.4378C191.075 17.0531 189.786 17.375 188.478 17.3751H141.316C140.008 17.375 138.719 17.0531 137.565 16.4378C136.41 15.8225 135.424 14.9326 134.694 13.8467C133.965 12.7607 133.513 11.5118 133.379 10.2102C133.246 8.9086 133.435 7.59412 133.929 6.38257H123.892C119.438 6.38256 115.166 8.15197 112.017 11.3015C108.867 14.4511 107.098 18.7229 107.098 23.177V236.033C107.098 238.238 107.532 240.422 108.376 242.46C109.22 244.498 110.457 246.349 112.017 247.908C113.576 249.468 115.428 250.705 117.465 251.549C119.503 252.393 121.687 252.827 123.892 252.827H206.611C211.065 252.827 215.337 251.058 218.486 247.909C221.636 244.759 223.405 240.487 223.406 236.033V23.1771C223.406 20.9716 222.971 18.7877 222.127 16.7501C221.283 14.7125 220.046 12.8611 218.487 11.3016C216.927 9.74205 215.076 8.50497 213.038 7.66097C211 6.81697 208.816 6.38257 206.611 6.38257Z" fill="white"/>
<path d="M267.306 56.4299H256.09V67.6465H267.306V56.4299Z" fill="#D1D0FF"/>
<path d="M242.87 63.24H261.297V81.6673H242.87V63.24ZM260.496 64.0412H243.671V80.8661H260.496V64.0412Z" fill="#3F3D56"/>
<path d="M72.2166 180.891H61V192.107H72.2166V180.891Z" fill="#E3E3FF"/>
<path d="M85.4362 185.297H67.0089V166.87H85.4362V185.297ZM67.8101 184.496H84.635V167.671H67.8101V184.496Z" fill="#3F3D56"/>
<path d="M176.842 83.6632L155.825 69L140.999 128.027H153.596L147.298 154.796L188.239 110.706H169.343L176.842 83.6632Z" fill="#E3E3FF"/>
<path d="M145.964 91.0154C146.392 88.6947 148.407 87 150.774 87H180.088C182.79 87 184.974 89.1833 184.974 91.8857C184.974 94.5881 182.79 96.7714 180.088 96.7714H154.85L151.736 113.871H169.095C180.561 113.871 189.859 123.17 189.859 134.636C189.859 146.102 180.561 155.4 169.095 155.4H156.346C150.331 155.4 144.834 151.995 142.147 146.621L141.521 145.369C140.315 142.957 141.292 140.025 143.705 138.819C146.117 137.613 149.048 138.59 150.255 141.002L150.881 142.254C151.919 144.331 154.026 145.629 156.346 145.629H169.095C175.172 145.629 180.088 140.712 180.088 134.636C180.088 128.559 175.172 123.643 169.095 123.643H145.888C144.438 123.643 143.063 123.002 142.132 121.887C141.201 120.773 140.819 119.307 141.079 117.887L145.964 91.0154Z" fill="#7D7AFF"/>
</g>
<defs>
<clipPath id="clip0_698_3723">
<rect width="329" height="270" fill="white"/>
</clipPath>
</defs>
</svg>
