<svg width="329" height="270" viewBox="0 0 329 270" fill="none" xmlns="http://www.w3.org/2000/svg">
<g clip-path="url(#clip0_698_1814)">
<path d="M229.78 61.345H228.362V22.4887C228.362 16.5243 225.993 10.8041 221.775 6.58664C217.558 2.36913 211.837 -0.000236703 205.873 -0.00024414H123.551C120.597 -0.000254662 117.673 0.58143 114.944 1.7116C112.216 2.84176 109.737 4.49828 107.648 6.58656C105.56 8.67485 103.904 11.154 102.773 13.8825C101.643 16.611 101.062 19.5354 101.062 22.4886V235.657C101.062 238.611 101.643 241.535 102.773 244.264C103.904 246.992 105.56 249.471 107.648 251.56C109.737 253.648 112.216 255.304 114.944 256.435C117.673 257.565 120.597 258.146 123.55 258.146H205.873C208.826 258.146 211.75 257.565 214.479 256.435C217.207 255.304 219.687 253.648 221.775 251.56C223.863 249.471 225.52 246.992 226.65 244.264C227.78 241.535 228.362 238.611 228.362 235.657V89.0036H229.78V61.345Z" fill="#3F3D56"/>
<path d="M206.611 6.38257H195.865C196.359 7.59411 196.548 8.90859 196.414 10.2102C196.281 11.5118 195.829 12.7607 195.1 13.8467C194.37 14.9327 193.384 15.8225 192.229 16.4378C191.075 17.0531 189.786 17.375 188.478 17.3751H141.316C140.008 17.375 138.719 17.0531 137.565 16.4378C136.41 15.8225 135.424 14.9326 134.694 13.8467C133.965 12.7607 133.513 11.5118 133.379 10.2102C133.246 8.9086 133.435 7.59412 133.929 6.38257H123.892C119.438 6.38256 115.166 8.15197 112.017 11.3015C108.867 14.4511 107.098 18.7229 107.098 23.177V236.033C107.098 238.238 107.532 240.422 108.376 242.46C109.22 244.498 110.457 246.349 112.017 247.908C113.576 249.468 115.428 250.705 117.465 251.549C119.503 252.393 121.687 252.827 123.892 252.827H206.611C211.065 252.828 215.337 251.058 218.486 247.909C221.636 244.759 223.405 240.487 223.406 236.033V23.1771C223.406 20.9716 222.971 18.7877 222.127 16.7501C221.283 14.7125 220.046 12.8611 218.487 11.3016C216.927 9.74205 215.076 8.50497 213.038 7.66097C211 6.81697 208.816 6.38257 206.611 6.38257Z" fill="white"/>
<path opacity="0.2" d="M156.749 81.5H140.249C138.73 81.5 137.499 82.7312 137.499 84.25V100.75C137.499 102.269 138.73 103.5 140.249 103.5H156.749C158.268 103.5 159.499 102.269 159.499 100.75V84.25C159.499 82.7312 158.268 81.5 156.749 81.5Z" fill="#7D7AFF"/>
<path opacity="0.2" d="M156.749 114.5H140.249C138.73 114.5 137.499 115.731 137.499 117.25V133.75C137.499 135.269 138.73 136.5 140.249 136.5H156.749C158.268 136.5 159.499 135.269 159.499 133.75V117.25C159.499 115.731 158.268 114.5 156.749 114.5Z" fill="#7D7AFF"/>
<path opacity="0.2" d="M189.749 81.5H173.249C171.73 81.5 170.499 82.7312 170.499 84.25V100.75C170.499 102.269 171.73 103.5 173.249 103.5H189.749C191.268 103.5 192.499 102.269 192.499 100.75V84.25C192.499 82.7312 191.268 81.5 189.749 81.5Z" fill="#7D7AFF"/>
<path d="M156.749 78.75H140.249C138.79 78.75 137.391 79.3295 136.36 80.3609C135.328 81.3924 134.749 82.7913 134.749 84.25V100.75C134.749 102.209 135.328 103.608 136.36 104.639C137.391 105.671 138.79 106.25 140.249 106.25H156.749C158.208 106.25 159.607 105.671 160.638 104.639C161.67 103.608 162.249 102.209 162.249 100.75V84.25C162.249 82.7913 161.67 81.3924 160.638 80.3609C159.607 79.3295 158.208 78.75 156.749 78.75ZM156.749 100.75H140.249V84.25H156.749V100.75ZM156.749 111.75H140.249C138.79 111.75 137.391 112.329 136.36 113.361C135.328 114.392 134.749 115.791 134.749 117.25V133.75C134.749 135.209 135.328 136.608 136.36 137.639C137.391 138.671 138.79 139.25 140.249 139.25H156.749C158.208 139.25 159.607 138.671 160.638 137.639C161.67 136.608 162.249 135.209 162.249 133.75V117.25C162.249 115.791 161.67 114.392 160.638 113.361C159.607 112.329 158.208 111.75 156.749 111.75ZM156.749 133.75H140.249V117.25H156.749V133.75ZM189.749 78.75H173.249C171.79 78.75 170.391 79.3295 169.36 80.3609C168.328 81.3924 167.749 82.7913 167.749 84.25V100.75C167.749 102.209 168.328 103.608 169.36 104.639C170.391 105.671 171.79 106.25 173.249 106.25H189.749C191.208 106.25 192.607 105.671 193.638 104.639C194.67 103.608 195.249 102.209 195.249 100.75V84.25C195.249 82.7913 194.67 81.3924 193.638 80.3609C192.607 79.3295 191.208 78.75 189.749 78.75ZM189.749 100.75H173.249V84.25H189.749V100.75ZM170.499 128.25C171.228 128.25 171.928 127.96 172.444 127.445C172.959 126.929 173.249 126.229 173.249 125.5V114.5C173.249 113.771 172.959 113.071 172.444 112.555C171.928 112.04 171.228 111.75 170.499 111.75C169.77 111.75 169.07 112.04 168.554 112.555C168.039 113.071 167.749 113.771 167.749 114.5V125.5C167.749 126.229 168.039 126.929 168.554 127.445C169.07 127.96 169.77 128.25 170.499 128.25Z" fill="#7D7AFF"/>
<path d="M192.499 117.25H184.249V114.5C184.249 113.771 183.959 113.071 183.444 112.555C182.928 112.04 182.228 111.75 181.499 111.75C180.77 111.75 180.07 112.04 179.554 112.555C179.039 113.071 178.749 113.771 178.749 114.5V133.75H170.499C169.77 133.75 169.07 134.04 168.554 134.555C168.039 135.071 167.749 135.771 167.749 136.5C167.749 137.229 168.039 137.929 168.554 138.445C169.07 138.96 169.77 139.25 170.499 139.25H181.499C182.228 139.25 182.928 138.96 183.444 138.445C183.959 137.929 184.249 137.229 184.249 136.5V122.75H192.499C193.228 122.75 193.928 122.46 194.444 121.945C194.959 121.429 195.249 120.729 195.249 120C195.249 119.271 194.959 118.571 194.444 118.055C193.928 117.54 193.228 117.25 192.499 117.25ZM192.499 128.25C191.77 128.25 191.07 128.54 190.554 129.055C190.039 129.571 189.749 130.271 189.749 131V136.5C189.749 137.229 190.039 137.929 190.554 138.445C191.07 138.96 191.77 139.25 192.499 139.25C193.228 139.25 193.928 138.96 194.444 138.445C194.959 137.929 195.249 137.229 195.249 136.5V131C195.249 130.271 194.959 129.571 194.444 129.055C193.928 128.54 193.228 128.25 192.499 128.25Z" fill="#7D7AFF"/>
<path d="M267.306 153.427H256.09V164.644H267.306V153.427Z" fill="#D1D0FF"/>
<path d="M242.87 160.237H261.297V178.664H242.87V160.237ZM260.496 161.038H243.671V177.863H260.496V161.038Z" fill="#3F3D56"/>
<path d="M72.2166 60.8899H61V72.1065H72.2166V60.8899Z" fill="#E3E3FF"/>
<path d="M85.4361 65.2964H67.0088V46.8691H85.4361V65.2964ZM67.81 64.4953H84.6349V47.6703H67.81V64.4953Z" fill="#3F3D56"/>
</g>
<defs>
<clipPath id="clip0_698_1814">
<rect width="329" height="270" fill="white"/>
</clipPath>
</defs>
</svg>
