<svg width="318" height="296" viewBox="0 0 318 296" fill="none" xmlns="http://www.w3.org/2000/svg">
<path d="M65.4506 214.008C65.3337 213.889 65.2684 213.731 65.2678 213.567C65.2673 213.403 65.3316 213.245 65.4477 213.126C65.5637 213.006 65.7227 212.934 65.892 212.924C66.0612 212.914 66.228 212.967 66.3581 213.072C67.6415 214.079 68.9538 215.052 70.2934 215.988C70.4359 216.087 70.5315 216.238 70.5591 216.406C70.5868 216.574 70.5443 216.746 70.4409 216.884C70.3374 217.022 70.1818 217.115 70.008 217.142C69.8342 217.169 69.6564 217.128 69.5135 217.029C68.1533 216.078 66.8206 215.091 65.5169 214.069C65.4939 214.05 65.4717 214.029 65.4506 214.008ZM73.53 219.677C73.4296 219.572 73.3684 219.437 73.3558 219.294C73.3433 219.152 73.3802 219.009 73.4608 218.889C73.5572 218.746 73.708 218.646 73.8803 218.611C74.0527 218.576 74.2324 218.608 74.3802 218.701C75.7653 219.57 77.1726 220.405 78.6009 221.206C78.9163 221.384 79.0269 221.776 78.8437 222.083C78.7555 222.231 78.6104 222.339 78.4403 222.383C78.2702 222.427 78.0889 222.404 77.9361 222.319C76.4873 221.508 75.0602 220.662 73.6559 219.78C73.6107 219.75 73.5686 219.715 73.53 219.677ZM82.1641 224.496C82.0596 224.385 81.9984 224.242 81.9913 224.092C81.9842 223.942 82.0315 223.794 82.1252 223.675C82.2188 223.555 82.3528 223.471 82.5039 223.436C82.655 223.402 82.8137 223.42 82.9526 223.487C84.4227 224.209 85.915 224.887 87.4273 225.522C87.7637 225.663 87.918 226.041 87.7716 226.367C87.7014 226.524 87.5699 226.647 87.406 226.709C87.2422 226.772 87.0593 226.769 86.8976 226.702C85.3603 226.057 83.8442 225.367 82.3513 224.632C82.2802 224.599 82.2165 224.553 82.1641 224.496ZM91.3082 228.322C91.2066 228.216 91.1447 228.081 91.1323 227.937C91.1199 227.793 91.1578 227.65 91.2399 227.53C91.322 227.41 91.4436 227.319 91.585 227.274C91.7264 227.229 91.8794 227.231 92.0195 227.28C93.5941 227.822 95.1766 228.305 96.7245 228.716C97.0785 228.809 97.2867 229.164 97.1868 229.506C97.0904 229.849 96.7229 230.051 96.3712 229.957C94.7529 229.526 93.1516 229.038 91.5708 228.492C91.4713 228.455 91.3815 228.397 91.3082 228.322ZM100.915 230.854C100.82 230.754 100.76 230.628 100.744 230.494C100.727 230.36 100.755 230.224 100.822 230.105C100.89 229.987 100.994 229.892 101.121 229.835C101.247 229.777 101.389 229.759 101.527 229.784C103.162 230.077 104.802 230.296 106.398 230.433C106.574 230.449 106.736 230.531 106.849 230.662C106.961 230.794 107.016 230.963 107 231.132C106.984 231.302 106.898 231.459 106.763 231.568C106.627 231.677 106.453 231.73 106.277 231.714C104.602 231.568 102.935 231.346 101.282 231.047C101.141 231.023 101.012 230.955 100.915 230.854ZM110.819 231.692C110.732 231.601 110.674 231.487 110.653 231.364C110.631 231.242 110.647 231.115 110.697 231.001C110.748 230.887 110.832 230.789 110.939 230.72C111.046 230.651 111.172 230.614 111.3 230.612C112.935 230.588 114.566 230.475 116.187 230.274C116.362 230.252 116.539 230.298 116.678 230.402C116.818 230.506 116.909 230.659 116.932 230.828C116.954 230.997 116.906 231.168 116.798 231.303C116.69 231.438 116.532 231.527 116.357 231.55C114.712 231.756 113.016 231.874 111.318 231.9C111.225 231.9 111.132 231.882 111.047 231.846C110.961 231.81 110.883 231.758 110.819 231.692ZM120.665 230.445C120.587 230.363 120.532 230.263 120.506 230.155C120.481 230.046 120.484 229.933 120.517 229.826C120.55 229.719 120.611 229.622 120.694 229.545C120.778 229.468 120.88 229.413 120.992 229.386C122.573 228.996 124.128 228.514 125.649 227.943C125.73 227.912 125.817 227.897 125.905 227.899C125.992 227.901 126.078 227.919 126.158 227.953C126.238 227.987 126.31 228.036 126.37 228.097C126.43 228.159 126.478 228.231 126.509 228.309C126.573 228.468 126.569 228.645 126.498 228.801C126.427 228.957 126.295 229.079 126.131 229.14C124.559 229.732 122.952 230.23 121.318 230.631C121.202 230.659 121.08 230.657 120.965 230.624C120.851 230.592 120.747 230.53 120.665 230.445ZM129.917 226.97C129.848 226.898 129.797 226.812 129.767 226.718C129.738 226.623 129.732 226.524 129.749 226.427C129.766 226.33 129.805 226.238 129.865 226.158C129.924 226.078 130.002 226.013 130.092 225.967C131.532 225.222 132.928 224.401 134.274 223.506C134.42 223.42 134.594 223.392 134.761 223.427C134.928 223.461 135.075 223.557 135.171 223.693C135.267 223.829 135.306 223.996 135.278 224.159C135.251 224.322 135.16 224.469 135.025 224.569C133.637 225.491 132.198 226.337 130.713 227.104C130.583 227.169 130.436 227.19 130.292 227.166C130.148 227.142 130.017 227.073 129.917 226.97ZM138.158 221.589C138.148 221.578 138.137 221.567 138.126 221.556C138.071 221.49 138.031 221.414 138.006 221.333C137.981 221.252 137.974 221.168 137.983 221.084C137.992 221 138.019 220.919 138.06 220.845C138.102 220.77 138.159 220.705 138.227 220.652C139.504 219.655 140.735 218.603 141.916 217.5C141.978 217.438 142.052 217.389 142.134 217.355C142.216 217.321 142.304 217.304 142.393 217.304C142.482 217.304 142.57 217.321 142.652 217.355C142.734 217.388 142.808 217.438 142.87 217.499C142.932 217.561 142.98 217.635 143.012 217.715C143.044 217.795 143.059 217.881 143.056 217.967C143.053 218.053 143.033 218.138 142.995 218.216C142.958 218.294 142.905 218.364 142.839 218.422C141.627 219.551 140.366 220.629 139.058 221.653C138.927 221.753 138.762 221.803 138.595 221.791C138.429 221.779 138.273 221.707 138.158 221.589ZM145.28 214.862C145.171 214.748 145.109 214.599 145.104 214.443C145.1 214.288 145.154 214.136 145.257 214.016C146.3 212.801 147.259 211.522 148.127 210.185C148.221 210.04 148.369 209.937 148.541 209.899C148.712 209.86 148.892 209.889 149.042 209.979C149.35 210.167 149.447 210.563 149.25 210.865C148.35 212.249 147.356 213.574 146.276 214.833C146.216 214.903 146.141 214.96 146.056 215C145.972 215.04 145.879 215.062 145.785 215.065C145.691 215.068 145.597 215.051 145.51 215.016C145.423 214.981 145.344 214.929 145.28 214.862ZM150.509 206.698C150.422 206.607 150.365 206.494 150.343 206.372C150.321 206.25 150.335 206.124 150.385 206.01C151.018 204.568 151.51 203.072 151.854 201.541C151.891 201.374 151.994 201.228 152.142 201.136C152.29 201.043 152.469 201.01 152.642 201.046C153.001 201.119 153.229 201.459 153.152 201.807C152.791 203.417 152.274 204.991 151.609 206.508C151.575 206.585 151.526 206.656 151.464 206.715C151.401 206.775 151.328 206.821 151.247 206.853C151.166 206.885 151.08 206.901 150.993 206.9C150.905 206.9 150.819 206.882 150.739 206.85C150.651 206.816 150.573 206.764 150.509 206.698ZM136.265 190.754C136.154 190.63 136.096 190.47 136.103 190.306C136.109 190.142 136.18 189.987 136.301 189.872C136.421 189.757 136.583 189.691 136.752 189.687C136.922 189.683 137.086 189.742 137.212 189.851C138.328 190.879 139.681 191.784 141.126 192.467C141.276 192.547 141.389 192.68 141.441 192.839C141.492 192.997 141.479 193.168 141.403 193.317C141.327 193.466 141.195 193.581 141.034 193.637C140.873 193.694 140.695 193.689 140.538 193.622C138.974 192.881 137.507 191.898 136.293 190.783C136.286 190.772 136.273 190.762 136.265 190.754ZM133.43 186.843C133.373 186.783 133.328 186.713 133.297 186.637C132.504 184.62 132.731 182.774 133.942 181.442C134.058 181.314 134.221 181.236 134.397 181.225C134.572 181.213 134.745 181.27 134.878 181.382C134.943 181.438 134.997 181.505 135.035 181.581C135.073 181.657 135.096 181.739 135.101 181.824C135.107 181.908 135.095 181.992 135.066 182.072C135.038 182.152 134.994 182.225 134.936 182.289C133.823 183.516 134.103 185.081 134.533 186.178C134.589 186.317 134.592 186.47 134.543 186.611C134.494 186.752 134.396 186.872 134.266 186.951C134.135 187.03 133.98 187.062 133.828 187.042C133.675 187.022 133.535 186.952 133.43 186.843ZM145.073 194.925C145.005 194.854 144.954 194.769 144.924 194.676C144.895 194.583 144.888 194.485 144.904 194.389C144.961 194.037 145.301 193.798 145.662 193.85C147.247 194.086 148.843 194.07 150.406 193.809C150.492 193.795 150.58 193.797 150.665 193.815C150.75 193.833 150.83 193.868 150.902 193.917C150.973 193.965 151.034 194.027 151.08 194.098C151.127 194.17 151.159 194.249 151.173 194.332C151.203 194.5 151.163 194.673 151.061 194.813C150.96 194.952 150.805 195.047 150.631 195.076C148.928 195.364 147.188 195.377 145.459 195.121C145.311 195.101 145.175 195.031 145.073 194.925ZM152.541 197.331C152.427 197.213 152.364 197.058 152.363 196.897C152.361 195.34 152.169 193.789 151.791 192.276C151.752 192.111 151.781 191.939 151.873 191.795C151.965 191.652 152.111 191.549 152.28 191.509C152.45 191.468 152.629 191.495 152.778 191.581C152.928 191.668 153.037 191.808 153.08 191.971C153.481 193.583 153.686 195.234 153.69 196.892C153.69 196.976 153.674 197.06 153.641 197.138C153.608 197.216 153.559 197.288 153.497 197.348C153.436 197.408 153.363 197.455 153.282 197.488C153.202 197.521 153.115 197.537 153.028 197.538C152.937 197.537 152.846 197.518 152.763 197.483C152.679 197.447 152.603 197.395 152.541 197.331ZM138.426 180.447C138.342 180.358 138.284 180.247 138.262 180.128C138.239 180.009 138.251 179.886 138.297 179.774C138.343 179.661 138.42 179.563 138.521 179.492C138.622 179.42 138.741 179.377 138.866 179.367C140.566 179.25 142.302 179.584 144.024 180.363C144.178 180.439 144.296 180.569 144.352 180.728C144.408 180.886 144.399 181.059 144.325 181.21C144.252 181.361 144.12 181.479 143.959 181.538C143.797 181.597 143.618 181.593 143.46 181.526C141.946 180.842 140.432 180.546 138.961 180.648C138.862 180.656 138.762 180.642 138.67 180.607C138.577 180.572 138.494 180.517 138.426 180.447ZM154.723 193.324C154.653 193.251 154.602 193.164 154.573 193.069C154.544 192.974 154.538 192.874 154.555 192.777C154.572 192.679 154.613 192.587 154.673 192.507C154.733 192.427 154.812 192.362 154.902 192.316C156.258 191.63 157.578 190.729 158.824 189.64C158.953 189.526 159.124 189.467 159.298 189.474C159.472 189.481 159.637 189.555 159.756 189.678L159.761 189.684C159.82 189.747 159.865 189.82 159.894 189.899C159.924 189.979 159.936 190.063 159.932 190.147C159.927 190.231 159.906 190.314 159.869 190.39C159.831 190.466 159.779 190.535 159.714 190.591C158.383 191.754 156.971 192.718 155.516 193.454C155.387 193.519 155.24 193.542 155.097 193.518C154.953 193.495 154.822 193.426 154.723 193.324ZM150.186 188.069C150.148 188.029 150.114 187.984 150.087 187.935C149.313 186.535 148.364 185.274 147.279 184.202C147.218 184.141 147.17 184.07 147.138 183.992C147.105 183.913 147.089 183.829 147.09 183.745C147.091 183.661 147.11 183.577 147.144 183.5C147.178 183.422 147.228 183.352 147.291 183.293C147.353 183.234 147.427 183.187 147.508 183.156C147.589 183.124 147.675 183.108 147.762 183.109C147.85 183.11 147.936 183.128 148.016 183.161C148.096 183.194 148.169 183.243 148.23 183.303C149.402 184.462 150.428 185.823 151.259 187.329C151.342 187.48 151.359 187.656 151.308 187.819C151.257 187.982 151.142 188.119 150.987 188.2C150.857 188.266 150.708 188.289 150.564 188.266C150.419 188.242 150.286 188.173 150.186 188.069ZM162.132 186.987C162.026 186.876 161.964 186.733 161.956 186.582C161.949 186.431 161.997 186.283 162.092 186.162C163.023 184.974 163.923 183.639 164.761 182.197C164.848 182.048 164.992 181.939 165.162 181.893C165.332 181.847 165.513 181.868 165.667 181.951C165.987 182.126 166.099 182.516 165.92 182.827C165.051 184.321 164.12 185.703 163.15 186.937C163.091 187.012 163.017 187.074 162.931 187.118C162.845 187.162 162.75 187.187 162.653 187.192C162.556 187.197 162.459 187.181 162.369 187.146C162.279 187.11 162.198 187.056 162.132 186.987ZM167.06 178.631C166.972 178.539 166.914 178.425 166.893 178.302C166.871 178.179 166.887 178.053 166.938 177.938C167.593 176.479 168.187 174.996 168.721 173.491C168.779 173.33 168.9 173.197 169.058 173.123C169.216 173.048 169.399 173.036 169.566 173.091C169.913 173.208 170.095 173.571 169.978 173.907C169.431 175.443 168.823 176.958 168.156 178.449C168.112 178.546 168.043 178.632 167.956 178.698C167.87 178.764 167.767 178.808 167.659 178.826C167.55 178.844 167.438 178.835 167.334 178.801C167.229 178.767 167.135 178.709 167.06 178.631ZM170.236 169.508C170.163 169.432 170.11 169.339 170.081 169.239C170.053 169.139 170.05 169.033 170.073 168.932C170.421 167.39 170.666 165.828 170.806 164.255C170.827 164.09 170.914 163.94 171.047 163.835C171.18 163.73 171.35 163.679 171.522 163.693C171.693 163.707 171.852 163.785 171.965 163.909C172.079 164.034 172.138 164.197 172.13 164.363C171.985 165.991 171.731 167.608 171.371 169.205C171.345 169.319 171.287 169.425 171.204 169.51C171.12 169.594 171.014 169.656 170.898 169.687C170.781 169.718 170.658 169.718 170.541 169.686C170.424 169.655 170.319 169.593 170.236 169.508ZM171.1 159.941C170.992 159.828 170.929 159.681 170.924 159.527C170.861 157.947 170.706 156.371 170.461 154.808C170.448 154.724 170.452 154.639 170.473 154.557C170.494 154.475 170.531 154.398 170.583 154.33C170.635 154.262 170.7 154.205 170.774 154.161C170.849 154.118 170.932 154.089 171.018 154.076C171.105 154.063 171.192 154.067 171.277 154.087C171.362 154.107 171.442 154.143 171.512 154.193C171.582 154.243 171.641 154.306 171.686 154.378C171.731 154.451 171.761 154.531 171.773 154.614C172.03 156.248 172.189 157.885 172.25 159.479C172.253 159.563 172.239 159.647 172.209 159.726C172.179 159.806 172.133 159.878 172.073 159.94C172.014 160.002 171.942 160.052 171.863 160.087C171.784 160.122 171.698 160.142 171.611 160.145C171.515 160.149 171.42 160.132 171.332 160.097C171.244 160.062 171.165 160.008 171.1 159.941ZM99.8096 78.2528C99.7189 78.1578 99.6598 78.0386 99.6399 77.9107C99.6201 77.7828 99.6405 77.6521 99.6985 77.5355C99.7753 77.3823 99.9115 77.2647 100.078 77.2082C100.244 77.1518 100.426 77.1611 100.585 77.2342C101.882 77.8385 103.372 78.609 105.021 79.5282C105.173 79.6135 105.284 79.7537 105.329 79.9182C105.375 80.0826 105.351 80.2578 105.263 80.4052C105.08 80.7125 104.673 80.8184 104.355 80.6417C102.736 79.7411 101.272 78.9827 100.006 78.3944C99.9324 78.3593 99.8657 78.3113 99.8096 78.2528ZM169.632 150.429C169.556 150.351 169.502 150.255 169.476 150.151C169.067 148.615 168.588 147.097 168.041 145.601C168.012 145.522 167.999 145.438 168.004 145.353C168.009 145.269 168.031 145.186 168.068 145.11C168.106 145.034 168.159 144.966 168.224 144.91C168.289 144.854 168.365 144.81 168.447 144.783C168.529 144.754 168.616 144.742 168.703 144.746C168.79 144.751 168.875 144.772 168.954 144.808C169.032 144.844 169.103 144.895 169.161 144.958C169.219 145.021 169.264 145.094 169.292 145.173C169.86 146.733 170.354 148.3 170.761 149.831C170.798 149.97 170.786 150.116 170.727 150.247C170.668 150.378 170.566 150.487 170.436 150.555C170.307 150.623 170.157 150.648 170.012 150.625C169.866 150.602 169.732 150.533 169.632 150.429ZM108.464 83.0174C108.364 82.9134 108.303 82.7805 108.289 82.6394C108.276 82.4982 108.311 82.3567 108.39 82.237C108.436 82.1655 108.497 82.1036 108.568 82.0548C108.639 82.006 108.72 81.9713 108.805 81.9528C108.89 81.9342 108.978 81.9321 109.064 81.9466C109.15 81.9611 109.232 81.9919 109.306 82.0373C110.715 82.8983 112.11 83.7812 113.489 84.6857C113.561 84.733 113.623 84.7936 113.671 84.864C113.719 84.9344 113.752 85.0132 113.769 85.096C113.785 85.1788 113.785 85.264 113.767 85.3466C113.75 85.4292 113.716 85.5077 113.667 85.5775C113.618 85.6476 113.555 85.7076 113.483 85.7543C113.41 85.8009 113.328 85.8332 113.242 85.8493C113.157 85.8655 113.069 85.8651 112.983 85.8482C112.897 85.8313 112.816 85.7982 112.744 85.7509C111.374 84.8551 109.99 83.9795 108.593 83.1244C108.545 83.0942 108.502 83.0582 108.464 83.0174ZM166.344 141.349C166.294 141.298 166.253 141.238 166.223 141.173C165.558 139.718 164.843 138.284 164.08 136.875C163.998 136.724 163.981 136.548 164.033 136.385C164.085 136.223 164.202 136.087 164.358 136.007C164.514 135.928 164.696 135.912 164.864 135.962C165.032 136.013 165.173 136.126 165.255 136.277C166.032 137.712 166.761 139.171 167.439 140.652C167.502 140.791 167.512 140.947 167.467 141.093C167.422 141.238 167.326 141.364 167.195 141.447C167.064 141.531 166.907 141.567 166.751 141.549C166.595 141.531 166.451 141.46 166.344 141.349ZM116.719 88.4032C116.605 88.2869 116.54 88.1336 116.537 87.9734C116.534 87.8132 116.593 87.6577 116.703 87.5375C116.812 87.4172 116.964 87.3409 117.129 87.3235C117.293 87.3061 117.459 87.3489 117.592 87.4434C118.947 88.3794 120.29 89.332 121.62 90.3009C121.912 90.5144 121.971 90.9161 121.752 91.201C121.646 91.337 121.488 91.4269 121.314 91.4511C121.139 91.4753 120.962 91.4317 120.821 91.3299C119.498 90.3683 118.164 89.4217 116.818 88.4905C116.782 88.4642 116.749 88.435 116.719 88.4032ZM124.676 94.193C124.568 94.0804 124.505 93.9342 124.499 93.7808C124.494 93.6273 124.545 93.477 124.644 93.3571C124.753 93.2235 124.913 93.1372 125.088 93.1174C125.263 93.0975 125.439 93.1456 125.578 93.2512C126.885 94.2487 128.18 95.2618 129.461 96.2904C129.747 96.5171 129.782 96.921 129.547 97.1943C129.491 97.2593 129.423 97.313 129.346 97.3525C129.269 97.392 129.185 97.4163 129.098 97.4242C129.011 97.4321 128.924 97.4234 128.84 97.3985C128.757 97.3737 128.679 97.3332 128.612 97.2793C127.347 96.2657 126.049 95.2488 124.754 94.2588C124.726 94.2398 124.699 94.2177 124.676 94.193ZM161.742 132.818C161.711 132.785 161.684 132.75 161.659 132.712C160.81 131.346 159.926 130 159.008 128.676C158.918 128.535 158.888 128.365 158.925 128.202C158.961 128.04 159.061 127.897 159.204 127.805C159.347 127.712 159.521 127.677 159.69 127.705C159.859 127.734 160.01 127.826 160.111 127.96C161.044 129.301 161.94 130.665 162.8 132.051C162.89 132.197 162.917 132.372 162.874 132.537C162.832 132.702 162.723 132.844 162.573 132.932C162.441 133.007 162.287 133.037 162.136 133.016C161.985 132.995 161.846 132.925 161.742 132.818ZM132.342 100.34C132.221 100.22 132.154 100.06 132.153 99.893C132.153 99.726 132.22 99.5654 132.34 99.4453C132.46 99.3251 132.623 99.2549 132.796 99.2494C132.968 99.2439 133.136 99.3036 133.264 99.4158C134.523 100.475 135.778 101.557 136.991 102.632C137.118 102.748 137.192 102.907 137.198 103.076C137.204 103.245 137.142 103.409 137.024 103.533C136.906 103.658 136.743 103.733 136.568 103.741C136.394 103.75 136.223 103.693 136.093 103.581C134.872 102.502 133.638 101.437 132.391 100.387C132.376 100.371 132.356 100.355 132.342 100.34ZM156.201 124.818C156.184 124.8 156.167 124.782 156.152 124.763C155.17 123.479 154.162 122.215 153.128 120.971C153.073 120.905 153.032 120.829 153.008 120.748C152.983 120.667 152.976 120.582 152.985 120.498C152.995 120.414 153.022 120.333 153.064 120.259C153.107 120.185 153.164 120.12 153.232 120.067C153.3 120.014 153.378 119.975 153.462 119.951C153.546 119.927 153.633 119.919 153.72 119.929C153.807 119.938 153.891 119.963 153.967 120.004C154.044 120.045 154.111 120.1 154.165 120.166C155.209 121.425 156.228 122.703 157.221 123.999C157.32 124.132 157.363 124.295 157.341 124.456C157.32 124.618 157.236 124.766 157.106 124.87C156.977 124.973 156.811 125.026 156.643 125.016C156.475 125.007 156.317 124.936 156.201 124.818ZM139.685 106.838C139.571 106.715 139.51 106.554 139.515 106.388C139.521 106.223 139.592 106.066 139.714 105.95C139.836 105.834 139.999 105.767 140.17 105.765C140.341 105.762 140.507 105.824 140.632 105.936C141.831 107.054 143.014 108.188 144.181 109.338C144.43 109.59 144.434 109.997 144.17 110.248C144.108 110.307 144.035 110.354 143.954 110.386C143.873 110.418 143.787 110.434 143.699 110.433C143.612 110.433 143.526 110.415 143.446 110.383C143.365 110.35 143.292 110.302 143.231 110.242C142.074 109.1 140.899 107.974 139.707 106.866C139.702 106.856 139.694 106.848 139.685 106.838ZM149.972 117.307L149.955 117.289C148.875 116.079 147.774 114.888 146.651 113.715C146.532 113.589 146.469 113.423 146.476 113.253C146.483 113.082 146.56 112.922 146.689 112.806C146.753 112.748 146.828 112.704 146.91 112.675C146.991 112.645 147.078 112.632 147.165 112.635C147.252 112.638 147.337 112.658 147.416 112.693C147.495 112.728 147.566 112.778 147.625 112.84L147.627 112.842C148.759 114.026 149.87 115.229 150.959 116.45C151.198 116.719 151.169 117.122 150.89 117.354C150.761 117.463 150.593 117.518 150.422 117.509C150.25 117.501 150.089 117.428 149.972 117.307Z" fill="#E1E4E5"/>
<mask id="mask0_698_1695" style="mask-type:alpha" maskUnits="userSpaceOnUse" x="21" y="67" width="182" height="190">
<path d="M23.3989 68.7725H201.429V255.427H23.3989V68.7725Z" fill="#D1D0FF" stroke="#D1D0FF" stroke-width="3.14066"/>
<path d="M75.7626 214.009C75.6547 213.89 75.5942 213.732 75.5938 213.568C75.5933 213.404 75.6527 213.246 75.76 213.126C75.8672 213.007 76.0141 212.934 76.1705 212.925C76.3269 212.915 76.4811 212.968 76.6013 213.073C77.7872 214.08 78.9999 215.052 80.2379 215.988C80.3695 216.088 80.4578 216.239 80.4834 216.407C80.509 216.575 80.4697 216.747 80.3742 216.885C80.2786 217.023 80.1347 217.115 79.9741 217.142C79.8135 217.169 79.6492 217.129 79.5172 217.029C78.2602 216.079 77.0287 215.092 75.824 214.07C75.8026 214.051 75.7822 214.03 75.7626 214.009ZM83.2288 219.678C83.136 219.572 83.0794 219.438 83.0678 219.295C83.0563 219.152 83.0904 219.01 83.1648 218.89C83.2539 218.747 83.3933 218.647 83.5525 218.612C83.7118 218.577 83.8779 218.609 84.0145 218.701C85.2944 219.57 86.5949 220.406 87.9147 221.207C88.2062 221.385 88.3084 221.777 88.1391 222.084C88.0576 222.232 87.9236 222.339 87.7664 222.384C87.6091 222.428 87.4416 222.405 87.3004 222.32C85.9616 221.509 84.6428 220.662 83.3451 219.781C83.3034 219.75 83.2644 219.716 83.2288 219.678ZM91.2075 224.497C91.1109 224.386 91.0544 224.243 91.0478 224.093C91.0412 223.943 91.085 223.795 91.1715 223.675C91.258 223.556 91.3818 223.471 91.5215 223.437C91.6611 223.403 91.8078 223.421 91.9361 223.488C93.2946 224.21 94.6736 224.888 96.0712 225.523C96.382 225.664 96.5246 226.042 96.3894 226.368C96.3244 226.524 96.2029 226.647 96.0515 226.71C95.9001 226.773 95.7311 226.77 95.5816 226.702C94.1611 226.058 92.76 225.368 91.3805 224.633C91.3147 224.6 91.2559 224.554 91.2075 224.497ZM99.6575 228.322C99.5636 228.217 99.5064 228.081 99.4949 227.938C99.4835 227.794 99.5185 227.651 99.5944 227.53C99.6703 227.41 99.7826 227.32 99.9133 227.275C100.044 227.23 100.185 227.232 100.315 227.281C101.77 227.822 103.232 228.306 104.663 228.717C104.99 228.81 105.182 229.165 105.09 229.507C105.001 229.85 104.661 230.052 104.336 229.958C102.841 229.527 101.361 229.039 99.9002 228.493C99.8082 228.456 99.7253 228.397 99.6575 228.322ZM108.535 230.854C108.447 230.755 108.392 230.629 108.377 230.495C108.362 230.36 108.387 230.224 108.45 230.106C108.512 229.988 108.609 229.893 108.725 229.835C108.842 229.778 108.973 229.76 109.1 229.784C110.611 230.077 112.127 230.296 113.602 230.434C113.764 230.45 113.914 230.532 114.018 230.663C114.123 230.794 114.173 230.963 114.158 231.133C114.143 231.303 114.064 231.46 113.939 231.569C113.814 231.678 113.652 231.73 113.49 231.715C111.942 231.569 110.402 231.346 108.874 231.048C108.744 231.024 108.625 230.956 108.535 230.854ZM117.688 231.693C117.607 231.601 117.554 231.488 117.534 231.365C117.514 231.242 117.528 231.116 117.575 231.002C117.622 230.888 117.7 230.79 117.799 230.721C117.897 230.652 118.013 230.614 118.132 230.613C119.642 230.589 121.15 230.476 122.648 230.274C122.81 230.253 122.973 230.299 123.102 230.403C123.231 230.506 123.315 230.66 123.336 230.829C123.357 230.998 123.312 231.169 123.213 231.304C123.113 231.439 122.967 231.528 122.805 231.55C121.285 231.757 119.717 231.875 118.149 231.9C118.062 231.901 117.977 231.882 117.898 231.847C117.818 231.811 117.747 231.759 117.688 231.693ZM126.786 230.446C126.714 230.364 126.663 230.264 126.639 230.155C126.615 230.047 126.619 229.933 126.649 229.827C126.68 229.72 126.736 229.623 126.813 229.546C126.89 229.469 126.985 229.414 127.088 229.387C128.549 228.997 129.986 228.515 131.392 227.944C131.467 227.913 131.547 227.898 131.628 227.9C131.708 227.901 131.788 227.92 131.862 227.954C131.936 227.988 132.002 228.037 132.058 228.098C132.114 228.159 132.157 228.231 132.186 228.31C132.245 228.469 132.241 228.646 132.176 228.801C132.11 228.957 131.988 229.079 131.837 229.141C130.385 229.733 128.899 230.231 127.389 230.632C127.282 230.66 127.169 230.658 127.063 230.625C126.957 230.592 126.862 230.531 126.786 230.446ZM135.335 226.971C135.272 226.899 135.224 226.813 135.197 226.718C135.17 226.624 135.165 226.525 135.18 226.428C135.196 226.331 135.232 226.239 135.287 226.159C135.342 226.079 135.414 226.014 135.497 225.967C136.828 225.223 138.118 224.402 139.362 223.507C139.497 223.421 139.658 223.393 139.812 223.427C139.966 223.462 140.102 223.557 140.191 223.694C140.28 223.83 140.315 223.997 140.29 224.16C140.265 224.323 140.181 224.47 140.056 224.57C138.773 225.491 137.443 226.338 136.071 227.105C135.951 227.169 135.815 227.191 135.682 227.167C135.549 227.143 135.428 227.074 135.335 226.971ZM142.952 221.59C142.941 221.579 142.932 221.568 142.922 221.556C142.871 221.491 142.833 221.415 142.811 221.334C142.788 221.253 142.781 221.168 142.789 221.084C142.798 221.001 142.822 220.919 142.861 220.845C142.899 220.771 142.952 220.706 143.014 220.653C144.195 219.655 145.332 218.604 146.424 217.501C146.481 217.439 146.549 217.389 146.625 217.356C146.701 217.322 146.782 217.305 146.864 217.305C146.947 217.305 147.028 217.322 147.104 217.356C147.179 217.389 147.248 217.438 147.305 217.5C147.362 217.562 147.407 217.635 147.437 217.716C147.466 217.796 147.48 217.882 147.478 217.968C147.475 218.054 147.456 218.138 147.421 218.217C147.387 218.295 147.337 218.365 147.276 218.423C146.157 219.552 144.991 220.63 143.783 221.653C143.662 221.754 143.509 221.804 143.355 221.792C143.201 221.78 143.057 221.708 142.952 221.59ZM149.532 214.863C149.432 214.749 149.374 214.6 149.37 214.444C149.366 214.288 149.416 214.137 149.511 214.016C150.475 212.802 151.361 211.522 152.164 210.185C152.25 210.041 152.387 209.938 152.545 209.9C152.704 209.861 152.87 209.89 153.009 209.98C153.294 210.167 153.383 210.564 153.201 210.865C152.369 212.25 151.451 213.575 150.453 214.834C150.397 214.904 150.328 214.961 150.25 215.001C150.172 215.041 150.086 215.063 149.999 215.066C149.912 215.069 149.825 215.052 149.745 215.017C149.664 214.982 149.592 214.93 149.532 214.863ZM154.365 206.698C154.285 206.607 154.231 206.494 154.211 206.372C154.19 206.251 154.204 206.125 154.25 206.011C154.835 204.569 155.29 203.073 155.607 201.541C155.641 201.375 155.737 201.229 155.874 201.136C156.01 201.044 156.176 201.011 156.335 201.046C156.667 201.12 156.878 201.46 156.807 201.808C156.474 203.418 155.996 204.992 155.381 206.508C155.35 206.586 155.304 206.657 155.247 206.716C155.189 206.775 155.121 206.822 155.047 206.854C154.972 206.886 154.892 206.902 154.811 206.901C154.731 206.9 154.651 206.883 154.577 206.85C154.496 206.817 154.424 206.765 154.365 206.698ZM141.202 190.754C141.099 190.631 141.046 190.471 141.052 190.307C141.058 190.143 141.123 189.988 141.235 189.873C141.346 189.758 141.496 189.692 141.652 189.688C141.809 189.684 141.961 189.743 142.077 189.852C143.108 190.88 144.358 191.784 145.694 192.468C145.833 192.548 145.937 192.681 145.985 192.839C146.032 192.998 146.02 193.169 145.95 193.318C145.88 193.467 145.757 193.581 145.608 193.638C145.46 193.695 145.296 193.69 145.15 193.623C143.705 192.881 142.35 191.899 141.228 190.784C141.221 190.772 141.209 190.763 141.202 190.754ZM138.582 186.844C138.529 186.783 138.488 186.713 138.459 186.637C137.726 184.621 137.936 182.775 139.055 181.443C139.162 181.315 139.313 181.237 139.475 181.225C139.638 181.214 139.797 181.271 139.92 181.383C139.98 181.438 140.03 181.506 140.065 181.582C140.1 181.658 140.121 181.74 140.126 181.824C140.131 181.908 140.12 181.993 140.094 182.073C140.068 182.152 140.027 182.226 139.974 182.289C138.945 183.517 139.204 185.081 139.602 186.179C139.653 186.317 139.656 186.471 139.611 186.612C139.565 186.753 139.475 186.873 139.354 186.952C139.233 187.03 139.09 187.063 138.95 187.043C138.809 187.023 138.679 186.953 138.582 186.844ZM149.342 194.926C149.278 194.855 149.231 194.77 149.204 194.677C149.177 194.584 149.17 194.485 149.185 194.39C149.238 194.038 149.552 193.798 149.886 193.851C151.35 194.087 152.825 194.071 154.269 193.81C154.349 193.795 154.43 193.797 154.509 193.816C154.587 193.834 154.662 193.869 154.728 193.917C154.793 193.966 154.849 194.028 154.893 194.099C154.936 194.17 154.965 194.25 154.978 194.333C155.006 194.501 154.969 194.674 154.875 194.813C154.781 194.953 154.638 195.048 154.477 195.077C152.903 195.365 151.296 195.378 149.698 195.122C149.561 195.101 149.435 195.032 149.342 194.926ZM156.242 197.332C156.137 197.214 156.079 197.059 156.078 196.897C156.076 195.341 155.899 193.79 155.549 192.277C155.513 192.112 155.54 191.939 155.625 191.796C155.71 191.652 155.845 191.549 156.001 191.509C156.158 191.469 156.323 191.495 156.462 191.582C156.6 191.669 156.7 191.809 156.741 191.972C157.111 193.584 157.301 195.235 157.304 196.893C157.305 196.977 157.289 197.061 157.258 197.139C157.228 197.217 157.183 197.288 157.126 197.348C157.069 197.408 157.002 197.456 156.927 197.489C156.853 197.521 156.773 197.538 156.692 197.538C156.608 197.538 156.524 197.519 156.447 197.483C156.37 197.448 156.3 197.396 156.242 197.332ZM143.199 180.448C143.121 180.358 143.068 180.248 143.047 180.129C143.026 180.01 143.037 179.887 143.079 179.775C143.122 179.662 143.193 179.564 143.286 179.492C143.379 179.42 143.49 179.377 143.605 179.368C145.177 179.251 146.781 179.585 148.372 180.364C148.514 180.44 148.623 180.57 148.675 180.728C148.727 180.886 148.718 181.059 148.65 181.211C148.582 181.362 148.461 181.48 148.312 181.539C148.162 181.598 147.997 181.594 147.85 181.527C146.451 180.843 145.053 180.546 143.693 180.649C143.601 180.657 143.509 180.642 143.424 180.608C143.338 180.573 143.261 180.518 143.199 180.448ZM158.259 193.324C158.194 193.252 158.147 193.165 158.12 193.07C158.093 192.975 158.087 192.875 158.103 192.778C158.119 192.68 158.157 192.588 158.212 192.508C158.268 192.428 158.34 192.363 158.424 192.317C159.677 191.631 160.897 190.73 162.048 189.64C162.168 189.527 162.325 189.468 162.486 189.475C162.647 189.482 162.799 189.555 162.909 189.679L162.915 189.685C162.969 189.747 163.01 189.82 163.037 189.9C163.064 189.979 163.076 190.064 163.072 190.148C163.068 190.232 163.048 190.315 163.014 190.391C162.979 190.467 162.93 190.535 162.871 190.592C161.641 191.754 160.336 192.718 158.991 193.454C158.872 193.52 158.736 193.542 158.604 193.519C158.472 193.495 158.35 193.427 158.259 193.324ZM154.066 188.07C154.031 188.029 154 187.984 153.975 187.936C153.259 186.536 152.383 185.275 151.38 184.202C151.323 184.142 151.279 184.071 151.249 183.992C151.219 183.914 151.204 183.83 151.205 183.746C151.206 183.661 151.223 183.578 151.255 183.501C151.287 183.423 151.333 183.353 151.391 183.294C151.448 183.235 151.516 183.188 151.591 183.157C151.666 183.125 151.746 183.109 151.826 183.11C151.907 183.111 151.987 183.129 152.061 183.162C152.135 183.195 152.202 183.243 152.259 183.304C153.342 184.463 154.29 185.824 155.058 187.33C155.134 187.48 155.15 187.656 155.103 187.82C155.056 187.983 154.949 188.12 154.806 188.201C154.686 188.267 154.549 188.29 154.415 188.267C154.281 188.243 154.159 188.174 154.066 188.07ZM165.105 186.988C165.007 186.877 164.95 186.734 164.943 186.583C164.936 186.432 164.981 186.283 165.068 186.163C165.929 184.975 166.76 183.64 167.535 182.198C167.615 182.049 167.748 181.94 167.905 181.894C168.062 181.848 168.23 181.868 168.372 181.952C168.667 182.126 168.771 182.516 168.606 182.828C167.803 184.322 166.942 185.704 166.046 186.938C165.992 187.013 165.923 187.075 165.843 187.119C165.764 187.163 165.676 187.188 165.587 187.193C165.497 187.197 165.407 187.182 165.324 187.146C165.241 187.111 165.166 187.057 165.105 186.988ZM169.659 178.632C169.578 178.54 169.525 178.426 169.505 178.303C169.485 178.18 169.499 178.053 169.546 177.939C170.151 176.48 170.701 174.996 171.194 173.492C171.247 173.331 171.359 173.198 171.506 173.123C171.652 173.048 171.821 173.037 171.975 173.092C172.296 173.208 172.464 173.572 172.355 173.908C171.85 175.444 171.289 176.959 170.672 178.449C170.631 178.547 170.568 178.633 170.487 178.699C170.407 178.764 170.313 178.808 170.212 178.826C170.112 178.844 170.009 178.836 169.912 178.802C169.816 178.768 169.729 178.709 169.659 178.632ZM172.594 169.508C172.526 169.432 172.477 169.34 172.451 169.24C172.425 169.139 172.423 169.034 172.444 168.932C172.765 167.39 172.991 165.828 173.121 164.256C173.141 164.091 173.22 163.94 173.344 163.836C173.467 163.731 173.624 163.68 173.782 163.694C173.94 163.708 174.087 163.785 174.192 163.91C174.297 164.035 174.352 164.198 174.345 164.364C174.21 165.992 173.976 167.609 173.643 169.206C173.619 169.32 173.565 169.425 173.488 169.51C173.411 169.595 173.314 169.657 173.206 169.688C173.098 169.719 172.984 169.719 172.876 169.687C172.768 169.655 172.671 169.594 172.594 169.508ZM173.393 159.941C173.292 159.829 173.235 159.682 173.23 159.528C173.171 157.948 173.028 156.372 172.802 154.809C172.79 154.725 172.794 154.64 172.813 154.558C172.832 154.476 172.867 154.399 172.915 154.331C172.963 154.263 173.023 154.206 173.092 154.162C173.161 154.118 173.237 154.09 173.317 154.077C173.397 154.064 173.478 154.068 173.556 154.088C173.634 154.108 173.708 154.144 173.773 154.194C173.838 154.244 173.893 154.307 173.934 154.379C173.976 154.451 174.003 154.531 174.015 154.615C174.252 156.249 174.399 157.886 174.455 159.479C174.458 159.564 174.445 159.648 174.417 159.727C174.389 159.806 174.347 159.879 174.292 159.941C174.237 160.003 174.171 160.053 174.098 160.088C174.024 160.123 173.945 160.143 173.864 160.146C173.776 160.149 173.689 160.133 173.607 160.098C173.526 160.063 173.452 160.009 173.393 159.941ZM107.514 78.2535C107.43 78.1586 107.375 78.0394 107.357 77.9115C107.338 77.7835 107.357 77.6528 107.411 77.5363C107.482 77.383 107.608 77.2654 107.761 77.209C107.915 77.1525 108.083 77.1619 108.23 77.235C109.428 77.8392 110.806 78.6097 112.329 79.5289C112.47 79.6142 112.572 79.7545 112.614 79.9189C112.656 80.0833 112.634 80.2585 112.553 80.4059C112.384 80.7132 112.008 80.8191 111.714 80.6424C110.218 79.7419 108.865 78.9834 107.695 78.3951C107.627 78.36 107.565 78.312 107.514 78.2535ZM172.036 150.429C171.966 150.351 171.916 150.256 171.891 150.152C171.514 148.616 171.071 147.098 170.566 145.602C170.539 145.523 170.527 145.438 170.532 145.354C170.536 145.27 170.556 145.187 170.591 145.111C170.626 145.035 170.675 144.967 170.735 144.911C170.795 144.854 170.865 144.811 170.941 144.783C171.017 144.755 171.097 144.743 171.178 144.747C171.258 144.751 171.337 144.772 171.409 144.809C171.482 144.845 171.547 144.896 171.601 144.959C171.654 145.021 171.696 145.095 171.722 145.174C172.246 146.734 172.703 148.301 173.08 149.832C173.114 149.971 173.102 150.117 173.048 150.248C172.994 150.379 172.899 150.487 172.779 150.556C172.66 150.624 172.521 150.649 172.387 150.626C172.252 150.603 172.129 150.534 172.036 150.429ZM115.511 83.0181C115.419 82.9142 115.362 82.7812 115.35 82.6401C115.337 82.4989 115.37 82.3575 115.443 82.2377C115.485 82.1662 115.541 82.1043 115.607 82.0555C115.673 82.0067 115.747 81.9721 115.826 81.9535C115.905 81.9349 115.986 81.9328 116.066 81.9473C116.145 81.9618 116.221 81.9926 116.289 82.038C117.591 82.899 118.88 83.782 120.155 84.6865C120.221 84.7337 120.279 84.7943 120.323 84.8647C120.367 84.9351 120.398 85.0139 120.413 85.0968C120.428 85.1796 120.428 85.2647 120.412 85.3473C120.396 85.4299 120.364 85.5084 120.319 85.5782C120.274 85.6483 120.216 85.7084 120.149 85.755C120.081 85.8017 120.006 85.834 119.927 85.8501C119.848 85.8662 119.766 85.8658 119.687 85.8489C119.608 85.832 119.533 85.799 119.466 85.7516C118.2 84.8559 116.921 83.9803 115.63 83.1251C115.586 83.0949 115.546 83.0589 115.511 83.0181ZM168.998 141.35C168.951 141.298 168.913 141.239 168.886 141.173C168.271 139.718 167.61 138.285 166.905 136.876C166.829 136.725 166.814 136.549 166.862 136.386C166.91 136.223 167.018 136.087 167.162 136.008C167.307 135.929 167.475 135.913 167.63 135.963C167.786 136.014 167.915 136.127 167.991 136.278C168.71 137.712 169.383 139.172 170.009 140.653C170.067 140.792 170.077 140.948 170.035 141.094C169.994 141.239 169.905 141.365 169.784 141.448C169.663 141.532 169.518 141.568 169.374 141.55C169.23 141.532 169.097 141.461 168.998 141.35ZM123.139 88.404C123.034 88.2876 122.974 88.1343 122.972 87.9741C122.969 87.8139 123.023 87.6584 123.124 87.5382C123.226 87.4179 123.366 87.3416 123.518 87.3242C123.67 87.3068 123.823 87.3496 123.947 87.4441C125.199 88.3801 126.44 89.3327 127.669 90.3017C127.939 90.5151 127.993 90.9169 127.79 91.2017C127.692 91.3377 127.547 91.4277 127.386 91.4518C127.224 91.476 127.061 91.4324 126.93 91.3306C125.708 90.369 124.474 89.4224 123.231 88.4912C123.198 88.4649 123.167 88.4357 123.139 88.404ZM130.492 94.1937C130.393 94.0812 130.335 93.9349 130.329 93.7815C130.324 93.6281 130.371 93.4777 130.463 93.3579C130.564 93.2242 130.712 93.138 130.873 93.1181C131.035 93.0982 131.198 93.1464 131.326 93.252C132.534 94.2494 133.73 95.2626 134.914 96.2912C135.178 96.5178 135.211 96.9217 134.994 97.195C134.942 97.26 134.879 97.3138 134.808 97.3532C134.737 97.3927 134.659 97.4171 134.579 97.425C134.498 97.4329 134.418 97.4241 134.341 97.3993C134.264 97.3744 134.192 97.3339 134.13 97.2801C132.961 96.2665 131.761 95.2496 130.565 94.2595C130.538 94.2405 130.514 94.2184 130.492 94.1937ZM164.745 132.819C164.716 132.786 164.691 132.75 164.669 132.713C163.883 131.347 163.067 130.001 162.219 128.677C162.135 128.535 162.108 128.366 162.141 128.203C162.175 128.041 162.268 127.898 162.399 127.805C162.531 127.713 162.692 127.677 162.849 127.706C163.005 127.735 163.145 127.826 163.238 127.961C164.1 129.302 164.928 130.666 165.723 132.051C165.806 132.198 165.831 132.372 165.791 132.538C165.752 132.703 165.652 132.845 165.512 132.933C165.391 133.008 165.249 133.037 165.109 133.017C164.97 132.996 164.841 132.926 164.745 132.819ZM137.576 100.341C137.465 100.221 137.403 100.061 137.402 99.8937C137.402 99.7267 137.464 99.5661 137.575 99.446C137.685 99.3259 137.836 99.2556 137.996 99.2501C138.155 99.2446 138.31 99.3043 138.429 99.4165C139.592 100.476 140.752 101.557 141.873 102.632C141.99 102.749 142.058 102.908 142.064 103.077C142.07 103.245 142.012 103.41 141.903 103.534C141.794 103.659 141.643 103.733 141.482 103.742C141.321 103.751 141.163 103.694 141.043 103.582C139.915 102.503 138.774 101.438 137.621 100.388C137.608 100.372 137.59 100.356 137.576 100.341ZM159.625 124.818C159.609 124.801 159.593 124.783 159.579 124.763C158.672 123.48 157.741 122.215 156.785 120.971C156.734 120.906 156.696 120.83 156.674 120.749C156.651 120.668 156.644 120.583 156.653 120.499C156.662 120.415 156.687 120.333 156.726 120.259C156.765 120.186 156.818 120.12 156.881 120.068C156.944 120.015 157.016 119.975 157.093 119.951C157.171 119.928 157.252 119.92 157.332 119.929C157.412 119.938 157.49 119.964 157.56 120.005C157.631 120.046 157.693 120.101 157.743 120.167C158.708 121.425 159.65 122.703 160.568 124C160.658 124.132 160.698 124.296 160.678 124.457C160.658 124.619 160.581 124.766 160.461 124.87C160.341 124.974 160.188 125.027 160.033 125.017C159.878 125.007 159.732 124.936 159.625 124.818ZM144.362 106.839C144.257 106.716 144.2 106.555 144.205 106.389C144.21 106.224 144.276 106.067 144.389 105.951C144.501 105.834 144.652 105.768 144.81 105.766C144.968 105.763 145.121 105.824 145.237 105.937C146.345 107.055 147.439 108.189 148.517 109.339C148.747 109.591 148.75 109.998 148.507 110.249C148.45 110.308 148.382 110.355 148.307 110.387C148.232 110.418 148.153 110.435 148.072 110.434C147.991 110.433 147.912 110.416 147.837 110.383C147.763 110.35 147.696 110.303 147.639 110.242C146.569 109.1 145.484 107.975 144.382 106.866C144.378 106.856 144.37 106.849 144.362 106.839ZM153.869 117.308L153.853 117.289C152.855 116.08 151.837 114.889 150.8 113.716C150.69 113.59 150.631 113.424 150.638 113.254C150.645 113.083 150.715 112.922 150.835 112.806C150.894 112.749 150.963 112.705 151.038 112.675C151.114 112.646 151.194 112.633 151.274 112.636C151.355 112.639 151.433 112.659 151.507 112.694C151.58 112.729 151.645 112.779 151.7 112.841L151.701 112.843C152.747 114.027 153.774 115.23 154.781 116.45C155.001 116.719 154.974 117.123 154.717 117.355C154.597 117.463 154.442 117.519 154.284 117.51C154.126 117.501 153.977 117.429 153.869 117.308Z" fill="#D1D0FF" stroke="#D1D0FF" stroke-width="3.14066"/>
</mask>
<g mask="url(#mask0_698_1695)">
<path d="M40.4888 191.747C40.8908 191.887 42.2699 194.386 47.5956 196.075C49.9911 196.835 54.6714 195.655 54.6714 195.655L62.4537 206.115C62.4537 206.115 60.1718 207.046 57.0792 207.204C49.884 207.572 47.0517 205.44 47.0517 205.44L45.2273 203.855L40.4888 191.747Z" fill="#7D7AFF"/>
<path d="M43.5486 194.954C43.5486 194.954 46.4993 196.757 48.6882 196.919C50.4816 197.052 54.4291 196.384 54.4291 196.384L61.1273 205.571C61.1273 205.571 55.9604 206.814 53.4324 206.44C45.5298 205.271 45.2555 203.661 45.2555 203.661L44.8929 202.984C44.8929 202.984 48.3566 205.305 53.1909 205.703C56.9496 206.013 59.8863 205.048 59.8863 205.048L54.1435 197.059C54.1435 197.059 50.7944 197.679 48.8169 197.527C46.8394 197.376 43.558 195.706 43.558 195.706L43.5486 194.954Z" fill="#211CFF"/>
<path d="M41.9978 195.218C43.0518 195.775 45.0735 196.668 46.1914 197.935C46.9552 198.8 48.2986 201.293 48.1079 202.323C47.9773 203.026 47.3009 203.851 45.8476 203.188C44.3934 202.523 43.0068 201.607 43.0068 201.607L41.9978 195.218Z" fill="#211CFF"/>
<path d="M35.8176 180.254L45.83 189.574C45.83 189.574 44.1729 194.358 44.3683 196.957C44.8483 203.35 47.0635 205.452 47.0635 205.452C47.0635 205.452 44.5233 204.091 41.6712 200.313C37.3253 194.558 34.8932 189.632 34.8932 189.632C34.8932 189.632 34.2863 187.71 34.4563 185.745C34.6245 183.78 35.8176 180.254 35.8176 180.254Z" fill="#D1D0FF"/>
<path d="M45.7765 204.564C45.7765 204.564 43.8647 202.189 43.4533 198.171C43.2137 195.824 44.8023 190.013 44.8023 190.013L36.1661 181.578C36.1661 181.578 35.3648 184.169 35.0933 185.768C34.6828 188.183 35.2596 190.378 35.2596 190.378L35.9228 191.58C35.9228 191.58 35.4418 189.991 35.7509 186.834C35.8693 185.623 36.6518 183.119 36.6762 183.18C36.6997 183.24 43.9174 190.31 43.9174 190.31C43.9174 190.31 42.7496 195.874 42.8069 197.741C42.9187 201.363 44.7685 203.761 44.7685 203.761L45.7765 204.564Z" fill="#4F4BFF"/>
<path d="M43.1501 202.12C43.1501 202.12 42.8889 201.22 41.6921 198.824C40.7686 196.975 39.1002 195.344 38.638 195.26C38.3364 195.205 38.2415 195.289 38.2124 195.354C39.1763 196.857 40.3393 198.561 41.6874 200.346C42.1881 201.01 42.6803 201.6 43.1501 202.12Z" fill="#4F4BFF"/>
<path d="M53.8681 202.347C53.482 202.604 52.8611 202.386 52.4815 201.862C52.1011 201.336 52.1058 200.702 52.4919 200.445C52.878 200.188 53.4989 200.406 53.8785 200.93C54.2589 201.455 54.2542 202.09 53.8681 202.347Z" fill="#211CFF"/>
<path d="M40.1269 191.664C39.7398 191.987 39.0719 191.857 38.635 191.375C38.1982 190.893 38.1578 190.239 38.5449 189.916C38.9319 189.594 39.5998 189.724 40.0367 190.206C40.4735 190.689 40.5139 191.342 40.1269 191.664Z" fill="#4F4BFF"/>
<path d="M59.9165 205.438C59.1988 205.985 57.6468 205.304 58.5017 204.41C59.1152 203.768 60.3599 204.614 60.1551 205.267L59.9165 205.438Z" fill="#211CFF"/>
<path d="M53.9159 196.756C52.7839 196.665 52.7294 197.623 53.7966 197.838C54.2522 197.93 54.6487 198.025 54.6891 197.498C54.7163 197.14 54.3293 196.754 54.0343 196.755H53.9159V196.756Z" fill="#211CFF"/>
<path d="M43.6831 189.617C43.2134 189.068 42.848 189.801 42.8499 190.245C42.8517 190.689 42.988 191.325 43.3712 191.627C43.8945 192.04 44.12 191.47 44.2656 190.931C44.4075 190.408 44.2346 190.12 43.8626 189.731L43.6831 189.617Z" fill="#4F4BFF"/>
<path d="M36.3001 182.249H36.1216C35.9872 182.99 35.7646 185.391 37.3118 184.534C38.4213 183.919 36.9032 182.705 36.3001 182.249Z" fill="#4F4BFF"/>
</g>
<path d="M84.9269 58.8615L81.2479 65.9645L40.561 48.799L84.9269 58.8615Z" fill="white"/>
<path d="M76.1262 73.3945L68.1472 75.7082L42.406 49.542L76.1262 73.3945Z" fill="#4F4BFF"/>
<path d="M40.561 48.799L91.2208 88.6564L86.2956 67.2163L40.561 48.799Z" fill="#7D7AFF"/>
<path d="M84.9279 58.8617L40.5627 48.7992L82.6403 44.8978L84.9279 58.8617Z" fill="#7D7AFF"/>
<path d="M294.053 182.63V234.465L279.504 228.848C275.174 226.931 270.236 226.798 265.777 228.425C261.578 229.958 255.311 231.427 247.308 230.983C231.732 230.12 219.002 225.343 219.002 225.343L243.627 201.283C243.627 201.283 227.568 190.055 221.498 160.383C220.844 157.208 219.09 154.343 216.526 152.263L201.962 140.429C201.962 140.429 184.272 139.486 177.821 123.323C177.821 123.323 175.941 112.016 180.37 112.536C180.37 112.536 230.424 132.304 237.013 136.069C243.602 139.834 248.694 141.281 263.365 158.955C267.249 163.634 270.713 167.318 273.709 170.206C279.462 175.746 286.409 179.989 294.053 182.63Z" fill="#F8AE9D"/>
<path d="M136.593 192.889C135.9 193.214 135.201 193.525 134.495 193.823L134.267 193.314C134.947 193.027 135.645 192.716 136.344 192.389L136.593 192.889Z" fill="#2B297C"/>
<path d="M100.638 154.132C100.638 154.132 87.8632 156.588 89.4877 161.543C91.1117 166.496 114.738 166.724 114.738 166.724L100.638 154.132ZM123.103 175.867C123.103 175.867 110.328 178.324 111.952 183.277C113.576 188.231 137.202 188.46 137.202 188.46L123.103 175.867ZM138.29 190.562C138.29 190.562 125.516 193.018 127.14 197.971C128.764 202.925 152.39 203.153 152.39 203.153L138.29 190.562Z" fill="#F8AE9D"/>
<path d="M169.414 106.926L168.793 107.593L150.527 90.5591C147.723 87.9444 143.996 86.5507 140.164 86.6844C136.333 86.8181 132.712 88.4684 130.097 91.2721L94.0094 129.97C92.7148 131.358 91.7063 132.988 91.0414 134.766C90.3766 136.544 90.0685 138.436 90.1347 140.333C90.2009 142.23 90.6401 144.095 91.4273 145.823C92.2144 147.55 93.3341 149.105 94.7224 150.4L194.928 243.847C196.317 245.142 197.946 246.15 199.724 246.815C201.502 247.48 203.394 247.788 205.291 247.722C207.188 247.655 209.054 247.216 210.781 246.429C212.508 245.642 214.064 244.522 215.358 243.134L251.446 204.436C252.741 203.048 253.749 201.418 254.414 199.64C255.079 197.862 255.387 195.97 255.321 194.073C255.255 192.176 254.815 190.311 254.028 188.583C253.241 186.856 252.121 185.301 250.733 184.006L181.794 119.717L182.416 119.051L169.414 106.926Z" fill="#3F3D56"/>
<path d="M133.423 93.7231L128.713 98.7744C129.499 99.0733 130.199 99.5608 130.753 100.194C131.306 100.828 131.695 101.587 131.886 102.406C132.076 103.226 132.062 104.079 131.845 104.892C131.629 105.704 131.215 106.451 130.642 107.066L109.967 129.235C109.394 129.85 108.678 130.315 107.882 130.588C107.087 130.861 106.236 130.934 105.406 130.801C104.575 130.669 103.79 130.333 103.12 129.826C102.45 129.318 101.914 128.653 101.562 127.889L97.1618 132.607C95.2092 134.701 94.1684 137.485 94.2682 140.346C94.3681 143.207 95.6005 145.912 97.6943 147.864L197.753 241.174C198.79 242.141 200.007 242.894 201.335 243.391C202.662 243.887 204.075 244.117 205.492 244.068C206.909 244.018 208.302 243.69 209.592 243.102C210.882 242.514 212.043 241.678 213.01 240.642L249.272 201.757C251.224 199.663 252.265 196.88 252.165 194.019C252.065 191.157 250.833 188.453 248.739 186.5L148.68 93.1906C147.643 92.2237 146.426 91.4706 145.099 90.9741C143.771 90.4776 142.358 90.2476 140.941 90.297C139.525 90.3465 138.132 90.6745 136.842 91.2623C135.552 91.8502 134.39 92.6863 133.423 93.7231Z" fill="white"/>
<path d="M211.946 146.415C211.946 146.415 212.812 147.87 212.674 149.133L201.963 140.429C201.963 140.429 188.949 139.735 181.176 129.34C178.515 125.78 177.176 121.432 177.469 117.047C177.637 114.543 178.342 112.297 180.372 112.536C180.372 112.536 203.91 121.832 220.828 128.889L211.946 146.415Z" fill="#F8AE9D"/>
<path d="M168.301 182.053C178.737 182.053 187.197 173.868 187.197 163.771C187.197 153.674 178.737 145.488 168.301 145.488C157.865 145.488 149.405 153.674 149.405 163.771C149.405 173.868 157.865 182.053 168.301 182.053Z" fill="#4F4BFF"/>
<path d="M166.016 159.101L159.456 160.1L167.28 173.349L169.635 171.161L173.263 177.097L173.001 162.012L169.469 165.294L166.016 159.101Z" fill="white"/>
<path d="M167.283 155.659C169.06 157.449 169 160.293 167.15 162.012C165.3 163.731 162.36 163.674 160.583 161.884C158.806 160.094 158.866 157.249 160.716 155.53C162.566 153.811 165.506 153.869 167.283 155.659Z" fill="white"/>
<path d="M281.047 128.761C278.698 128.761 276.793 130.604 276.793 132.877C276.793 135.15 278.698 136.993 281.047 136.993C283.397 136.993 285.302 135.15 285.302 132.877C285.302 130.604 283.397 128.761 281.047 128.761Z" fill="#4F4BFF"/>
<path d="M178.124 50.6344C175.081 50.6344 172.614 48.2474 172.614 45.3029C172.614 42.3584 175.081 39.9714 178.124 39.9714C181.168 39.9714 183.635 42.3584 183.635 45.3029C183.635 48.2474 181.168 50.6344 178.124 50.6344Z" fill="#E1E4E5"/>
<path fill-rule="evenodd" clip-rule="evenodd" d="M200.113 70.6463L224.937 83.5075C226.39 84.2604 226.963 86.0317 226.22 87.4645L225.68 88.5079C226.413 87.0893 225.833 85.3328 224.381 84.5805L199.557 71.7193C198.106 70.9675 196.333 71.5072 195.598 72.9245L196.14 71.8797C196.882 70.447 198.661 69.8945 200.113 70.6463ZM194.566 74.9175L188.614 86.4048C187.872 87.8376 188.447 89.61 189.898 90.3618L214.722 103.223C216.173 103.975 217.953 103.422 218.695 101.99L224.647 90.5023L194.566 74.9175Z" fill="#4F4BFF"/>
<path d="M224.937 83.5075L200.113 70.6463C198.661 69.8945 196.888 70.4343 196.154 71.8515L195.122 73.8446L225.202 89.4294L226.235 87.4363C226.969 86.0191 226.39 84.2604 224.937 83.5075Z" fill="#4F4BFF"/>
<path opacity="0.5" d="M209.267 78.6244L213.287 80.7072M218.511 91.6647L212.343 88.4688M216.913 94.7495L210.745 91.5535M215.158 81.6767L223.337 85.9141M209.432 86.9606L196.956 80.4968M207.834 90.0453L195.358 83.5816M206.409 92.7947L193.933 86.331" stroke="#E3E3FF" stroke-width="2.69272" stroke-miterlimit="10" stroke-linecap="round" stroke-linejoin="round"/>
<path d="M209.895 97.7506C210.891 98.2662 212.102 97.9036 212.601 96.9407C213.1 95.9778 212.697 94.7791 211.702 94.2635C210.707 93.7478 209.495 94.1104 208.997 95.0734C208.498 96.0363 208.9 97.2349 209.895 97.7506Z" fill="white"/>
<path d="M212.321 99.0073C213.317 99.5229 214.528 99.1603 215.027 98.1974C215.526 97.2345 215.123 96.0358 214.128 95.5202C213.133 95.0046 211.921 95.3672 211.423 96.3301C210.924 97.293 211.326 98.4917 212.321 99.0073Z" fill="#2B297C"/>
<path fill-rule="evenodd" clip-rule="evenodd" d="M211.352 97.9097C211.868 97.7745 212.323 97.436 212.583 96.9337C212.843 96.4315 212.858 95.8649 212.67 95.3651C212.154 95.5002 211.699 95.8388 211.439 96.341C211.179 96.8433 211.164 97.4099 211.352 97.9097Z" fill="#2B297C"/>
</svg>
